<mxfile host="app.diagrams.net" agent="Mozilla/5.0 (Macintosh; Intel Mac OS X 10_15_7) AppleWebKit/605.1.15 (KHTML, like Gecko) Version/18.5 Safari/605.1.15" version="28.0.6">
  <diagram name="Trang-1" id="NzVsPsQGQ4RAwBnnUFds">
    <mxGraphModel dx="4024" dy="1304" grid="1" gridSize="10" guides="1" tooltips="1" connect="1" arrows="1" fold="1" page="1" pageScale="1" pageWidth="827" pageHeight="1169" math="0" shadow="0">
      <root>
        <mxCell id="0" />
        <mxCell id="1" parent="0" />
        <mxCell id="PIymlbc4sg3d0iJ04IQR-1" value="NGUOIDUNG" style="rounded=0;whiteSpace=wrap;html=1;" parent="1" vertex="1">
          <mxGeometry x="-640" y="200" width="160" height="40" as="geometry" />
        </mxCell>
        <mxCell id="PIymlbc4sg3d0iJ04IQR-4" value="" style="endArrow=none;html=1;rounded=0;entryX=0.5;entryY=1;entryDx=0;entryDy=0;" parent="1" target="PIymlbc4sg3d0iJ04IQR-5" edge="1">
          <mxGeometry width="50" height="50" relative="1" as="geometry">
            <mxPoint x="-560.2099999999999" y="200" as="sourcePoint" />
            <mxPoint x="-560.2099999999999" y="140" as="targetPoint" />
            <Array as="points">
              <mxPoint x="-560.2099999999999" y="200" />
            </Array>
          </mxGeometry>
        </mxCell>
        <mxCell id="PIymlbc4sg3d0iJ04IQR-5" value="&lt;u&gt;MANGUOIDUNG&lt;/u&gt;" style="ellipse;whiteSpace=wrap;html=1;" parent="1" vertex="1">
          <mxGeometry x="-620" y="50" width="120" height="80" as="geometry" />
        </mxCell>
        <mxCell id="PIymlbc4sg3d0iJ04IQR-6" value="" style="endArrow=none;html=1;rounded=0;entryX=0.301;entryY=0.956;entryDx=0;entryDy=0;entryPerimeter=0;" parent="1" target="PIymlbc4sg3d0iJ04IQR-7" edge="1">
          <mxGeometry width="50" height="50" relative="1" as="geometry">
            <mxPoint x="-480" y="200" as="sourcePoint" />
            <mxPoint x="-430" y="150" as="targetPoint" />
            <Array as="points">
              <mxPoint x="-480" y="200" />
            </Array>
          </mxGeometry>
        </mxCell>
        <mxCell id="PIymlbc4sg3d0iJ04IQR-7" value="TENTAIKHOAN" style="ellipse;whiteSpace=wrap;html=1;" parent="1" vertex="1">
          <mxGeometry x="-470" y="70" width="120" height="80" as="geometry" />
        </mxCell>
        <mxCell id="PIymlbc4sg3d0iJ04IQR-9" value="" style="endArrow=none;html=1;rounded=0;entryX=0.714;entryY=0.956;entryDx=0;entryDy=0;entryPerimeter=0;" parent="1" target="PIymlbc4sg3d0iJ04IQR-10" edge="1">
          <mxGeometry width="50" height="50" relative="1" as="geometry">
            <mxPoint x="-639.9999999999999" y="200" as="sourcePoint" />
            <mxPoint x="-678.18" y="150" as="targetPoint" />
            <Array as="points">
              <mxPoint x="-639.9999999999999" y="200" />
            </Array>
          </mxGeometry>
        </mxCell>
        <mxCell id="PIymlbc4sg3d0iJ04IQR-10" value="QUEQUAN" style="ellipse;whiteSpace=wrap;html=1;" parent="1" vertex="1">
          <mxGeometry x="-760" y="70" width="120" height="80" as="geometry" />
        </mxCell>
        <mxCell id="PIymlbc4sg3d0iJ04IQR-12" value="QUEQUAN" style="ellipse;whiteSpace=wrap;html=1;" parent="1" vertex="1">
          <mxGeometry x="-500" y="260" width="96" height="60" as="geometry" />
        </mxCell>
        <mxCell id="PIymlbc4sg3d0iJ04IQR-14" value="MATKHAU" style="ellipse;whiteSpace=wrap;html=1;" parent="1" vertex="1">
          <mxGeometry x="-690" y="260" width="90" height="60" as="geometry" />
        </mxCell>
        <mxCell id="PIymlbc4sg3d0iJ04IQR-15" value="" style="endArrow=none;html=1;rounded=0;entryX=0;entryY=1;entryDx=0;entryDy=0;exitX=0;exitY=0;exitDx=0;exitDy=0;" parent="1" source="PIymlbc4sg3d0iJ04IQR-14" target="PIymlbc4sg3d0iJ04IQR-1" edge="1">
          <mxGeometry width="50" height="50" relative="1" as="geometry">
            <mxPoint x="-670" y="280" as="sourcePoint" />
            <mxPoint x="-620" y="230" as="targetPoint" />
          </mxGeometry>
        </mxCell>
        <mxCell id="PIymlbc4sg3d0iJ04IQR-18" value="" style="endArrow=none;html=1;rounded=0;entryX=1;entryY=1;entryDx=0;entryDy=0;exitX=1;exitY=0;exitDx=0;exitDy=0;" parent="1" source="PIymlbc4sg3d0iJ04IQR-12" target="PIymlbc4sg3d0iJ04IQR-1" edge="1">
          <mxGeometry width="50" height="50" relative="1" as="geometry">
            <mxPoint x="-450" y="280" as="sourcePoint" />
            <mxPoint x="-500" y="230" as="targetPoint" />
          </mxGeometry>
        </mxCell>
        <mxCell id="PIymlbc4sg3d0iJ04IQR-21" value="BAIDANG" style="rounded=0;whiteSpace=wrap;html=1;" parent="1" vertex="1">
          <mxGeometry x="80" y="200" width="160" height="40" as="geometry" />
        </mxCell>
        <mxCell id="PIymlbc4sg3d0iJ04IQR-22" value="&lt;u&gt;MABAIDANG&lt;/u&gt;" style="ellipse;whiteSpace=wrap;html=1;" parent="1" vertex="1">
          <mxGeometry x="100" y="50" width="120" height="80" as="geometry" />
        </mxCell>
        <mxCell id="PIymlbc4sg3d0iJ04IQR-23" value="" style="endArrow=none;html=1;rounded=0;entryX=0.5;entryY=1;entryDx=0;entryDy=0;" parent="1" target="PIymlbc4sg3d0iJ04IQR-22" edge="1">
          <mxGeometry width="50" height="50" relative="1" as="geometry">
            <mxPoint x="160" y="200" as="sourcePoint" />
            <mxPoint x="210" y="150" as="targetPoint" />
          </mxGeometry>
        </mxCell>
        <mxCell id="PIymlbc4sg3d0iJ04IQR-24" value="NOIDUNG" style="ellipse;whiteSpace=wrap;html=1;" parent="1" vertex="1">
          <mxGeometry x="-50" y="70" width="120" height="80" as="geometry" />
        </mxCell>
        <mxCell id="PIymlbc4sg3d0iJ04IQR-25" value="" style="endArrow=none;html=1;rounded=0;" parent="1" target="PIymlbc4sg3d0iJ04IQR-24" edge="1">
          <mxGeometry width="50" height="50" relative="1" as="geometry">
            <mxPoint x="80" y="200" as="sourcePoint" />
            <mxPoint x="80" y="130" as="targetPoint" />
          </mxGeometry>
        </mxCell>
        <mxCell id="PIymlbc4sg3d0iJ04IQR-26" value="NOIDUNG" style="ellipse;whiteSpace=wrap;html=1;" parent="1" vertex="1">
          <mxGeometry x="260" y="70" width="120" height="80" as="geometry" />
        </mxCell>
        <mxCell id="PIymlbc4sg3d0iJ04IQR-27" value="" style="endArrow=none;html=1;rounded=0;" parent="1" target="PIymlbc4sg3d0iJ04IQR-26" edge="1">
          <mxGeometry width="50" height="50" relative="1" as="geometry">
            <mxPoint x="240" y="200" as="sourcePoint" />
            <mxPoint x="198" y="146" as="targetPoint" />
          </mxGeometry>
        </mxCell>
        <mxCell id="PIymlbc4sg3d0iJ04IQR-29" value="NHOM" style="rounded=0;whiteSpace=wrap;html=1;" parent="1" vertex="1">
          <mxGeometry x="-640" y="600" width="160" height="40" as="geometry" />
        </mxCell>
        <mxCell id="PIymlbc4sg3d0iJ04IQR-30" value="" style="endArrow=none;html=1;rounded=0;" parent="1" edge="1">
          <mxGeometry width="50" height="50" relative="1" as="geometry">
            <mxPoint x="-560" y="720" as="sourcePoint" />
            <mxPoint x="-560" y="640" as="targetPoint" />
          </mxGeometry>
        </mxCell>
        <mxCell id="PIymlbc4sg3d0iJ04IQR-31" value="&lt;u&gt;MANHOM&lt;/u&gt;" style="ellipse;whiteSpace=wrap;html=1;" parent="1" vertex="1">
          <mxGeometry x="-620" y="720" width="120" height="80" as="geometry" />
        </mxCell>
        <mxCell id="PIymlbc4sg3d0iJ04IQR-32" value="TENNHOM" style="ellipse;whiteSpace=wrap;html=1;" parent="1" vertex="1">
          <mxGeometry x="-810" y="720" width="120" height="80" as="geometry" />
        </mxCell>
        <mxCell id="PIymlbc4sg3d0iJ04IQR-33" value="" style="endArrow=none;html=1;rounded=0;entryX=0;entryY=1;entryDx=0;entryDy=0;exitX=0.712;exitY=0.053;exitDx=0;exitDy=0;exitPerimeter=0;" parent="1" source="PIymlbc4sg3d0iJ04IQR-32" edge="1">
          <mxGeometry width="50" height="50" relative="1" as="geometry">
            <mxPoint x="-720" y="720" as="sourcePoint" />
            <mxPoint x="-640" y="640" as="targetPoint" />
          </mxGeometry>
        </mxCell>
        <mxCell id="PIymlbc4sg3d0iJ04IQR-34" value="" style="endArrow=none;html=1;rounded=0;" parent="1" edge="1">
          <mxGeometry width="50" height="50" relative="1" as="geometry">
            <mxPoint x="-390" y="730" as="sourcePoint" />
            <mxPoint x="-480" y="640" as="targetPoint" />
          </mxGeometry>
        </mxCell>
        <mxCell id="PIymlbc4sg3d0iJ04IQR-35" value="NGAYTHANHLAP" style="ellipse;whiteSpace=wrap;html=1;" parent="1" vertex="1">
          <mxGeometry x="-413" y="720" width="120" height="80" as="geometry" />
        </mxCell>
        <mxCell id="PIymlbc4sg3d0iJ04IQR-36" value="TUONGTAC" style="rhombus;whiteSpace=wrap;html=1;" parent="1" vertex="1">
          <mxGeometry x="-280" y="180" width="160" height="80" as="geometry" />
        </mxCell>
        <mxCell id="PIymlbc4sg3d0iJ04IQR-37" value="" style="endArrow=none;html=1;rounded=0;entryX=0;entryY=0.5;entryDx=0;entryDy=0;" parent="1" target="PIymlbc4sg3d0iJ04IQR-36" edge="1">
          <mxGeometry width="50" height="50" relative="1" as="geometry">
            <mxPoint x="-480" y="220" as="sourcePoint" />
            <mxPoint x="-430" y="170" as="targetPoint" />
          </mxGeometry>
        </mxCell>
        <mxCell id="PIymlbc4sg3d0iJ04IQR-38" value="" style="endArrow=none;html=1;rounded=0;entryX=0;entryY=0.5;entryDx=0;entryDy=0;" parent="1" target="PIymlbc4sg3d0iJ04IQR-21" edge="1">
          <mxGeometry width="50" height="50" relative="1" as="geometry">
            <mxPoint x="-120" y="220" as="sourcePoint" />
            <mxPoint x="77" y="220" as="targetPoint" />
          </mxGeometry>
        </mxCell>
        <mxCell id="PIymlbc4sg3d0iJ04IQR-40" value="THEODOI" style="rhombus;whiteSpace=wrap;html=1;" parent="1" vertex="1">
          <mxGeometry x="-940" y="210" width="120" height="40" as="geometry" />
        </mxCell>
        <mxCell id="PIymlbc4sg3d0iJ04IQR-42" value="" style="endArrow=none;html=1;rounded=0;exitX=0.5;exitY=0;exitDx=0;exitDy=0;entryX=0.5;entryY=1;entryDx=0;entryDy=0;" parent="1" source="PIymlbc4sg3d0iJ04IQR-29" target="PIymlbc4sg3d0iJ04IQR-61" edge="1">
          <mxGeometry width="50" height="50" relative="1" as="geometry">
            <mxPoint x="-610" y="530" as="sourcePoint" />
            <mxPoint x="-560" y="480" as="targetPoint" />
          </mxGeometry>
        </mxCell>
        <mxCell id="PIymlbc4sg3d0iJ04IQR-44" value="(1,n)" style="text;html=1;align=center;verticalAlign=middle;whiteSpace=wrap;rounded=0;" parent="1" vertex="1">
          <mxGeometry x="-480" y="200" width="50" height="20" as="geometry" />
        </mxCell>
        <mxCell id="PIymlbc4sg3d0iJ04IQR-45" value="(1,1)" style="text;html=1;align=center;verticalAlign=middle;whiteSpace=wrap;rounded=0;" parent="1" vertex="1">
          <mxGeometry x="30" y="200" width="50" height="20" as="geometry" />
        </mxCell>
        <mxCell id="PIymlbc4sg3d0iJ04IQR-46" value="" style="endArrow=none;html=1;rounded=0;entryX=0.5;entryY=1;entryDx=0;entryDy=0;" parent="1" edge="1">
          <mxGeometry width="50" height="50" relative="1" as="geometry">
            <mxPoint x="-200.21" y="180" as="sourcePoint" />
            <mxPoint x="-200.00000000000009" y="110" as="targetPoint" />
            <Array as="points">
              <mxPoint x="-200.21" y="180" />
            </Array>
          </mxGeometry>
        </mxCell>
        <mxCell id="PIymlbc4sg3d0iJ04IQR-47" value="LOAICAMXUC" style="ellipse;whiteSpace=wrap;html=1;" parent="1" vertex="1">
          <mxGeometry x="-260" y="30" width="120" height="80" as="geometry" />
        </mxCell>
        <mxCell id="PIymlbc4sg3d0iJ04IQR-50" value="&lt;font style=&quot;font-size: 9px;&quot;&gt;Người theo dõi&amp;nbsp;&lt;/font&gt;" style="text;html=1;align=center;verticalAlign=middle;whiteSpace=wrap;rounded=0;rotation=90;" parent="1" vertex="1">
          <mxGeometry x="-810" y="170" width="70" height="20" as="geometry" />
        </mxCell>
        <mxCell id="PIymlbc4sg3d0iJ04IQR-53" value="&lt;font style=&quot;font-size: 9px;&quot;&gt;Người được theo dõi&amp;nbsp;&lt;/font&gt;" style="text;html=1;align=center;verticalAlign=middle;whiteSpace=wrap;rounded=0;rotation=89;" parent="1" vertex="1">
          <mxGeometry x="-820" y="270" width="90" height="20" as="geometry" />
        </mxCell>
        <mxCell id="PIymlbc4sg3d0iJ04IQR-57" value="" style="endArrow=none;html=1;rounded=0;exitX=0.5;exitY=0;exitDx=0;exitDy=0;entryX=0.25;entryY=1;entryDx=0;entryDy=0;" parent="1" source="PIymlbc4sg3d0iJ04IQR-40" target="PIymlbc4sg3d0iJ04IQR-50" edge="1">
          <mxGeometry width="50" height="50" relative="1" as="geometry">
            <mxPoint x="-840" y="220" as="sourcePoint" />
            <mxPoint x="-820" y="200" as="targetPoint" />
            <Array as="points" />
          </mxGeometry>
        </mxCell>
        <mxCell id="PIymlbc4sg3d0iJ04IQR-58" value="" style="endArrow=none;html=1;rounded=0;entryX=0;entryY=0.25;entryDx=0;entryDy=0;exitX=0.25;exitY=0;exitDx=0;exitDy=0;" parent="1" source="PIymlbc4sg3d0iJ04IQR-50" target="PIymlbc4sg3d0iJ04IQR-1" edge="1">
          <mxGeometry width="50" height="50" relative="1" as="geometry">
            <mxPoint x="-760" y="210" as="sourcePoint" />
            <mxPoint x="-710" y="160" as="targetPoint" />
          </mxGeometry>
        </mxCell>
        <mxCell id="PIymlbc4sg3d0iJ04IQR-59" value="" style="endArrow=none;html=1;rounded=0;entryX=0.5;entryY=1;entryDx=0;entryDy=0;exitX=0.75;exitY=1;exitDx=0;exitDy=0;" parent="1" source="PIymlbc4sg3d0iJ04IQR-53" target="PIymlbc4sg3d0iJ04IQR-40" edge="1">
          <mxGeometry width="50" height="50" relative="1" as="geometry">
            <mxPoint x="-800" y="300" as="sourcePoint" />
            <mxPoint x="-875" y="250" as="targetPoint" />
            <Array as="points" />
          </mxGeometry>
        </mxCell>
        <mxCell id="PIymlbc4sg3d0iJ04IQR-60" value="" style="endArrow=none;html=1;rounded=0;exitX=0.75;exitY=0;exitDx=0;exitDy=0;entryX=0.25;entryY=1;entryDx=0;entryDy=0;" parent="1" source="PIymlbc4sg3d0iJ04IQR-53" edge="1">
          <mxGeometry width="50" height="50" relative="1" as="geometry">
            <mxPoint x="-735" y="277" as="sourcePoint" />
            <mxPoint x="-640" y="230" as="targetPoint" />
            <Array as="points" />
          </mxGeometry>
        </mxCell>
        <mxCell id="PIymlbc4sg3d0iJ04IQR-61" value="TAO" style="rhombus;whiteSpace=wrap;html=1;" parent="1" vertex="1">
          <mxGeometry x="-615" y="400" width="110" height="40" as="geometry" />
        </mxCell>
        <mxCell id="PIymlbc4sg3d0iJ04IQR-62" value="" style="endArrow=none;html=1;rounded=0;entryX=0.5;entryY=1;entryDx=0;entryDy=0;exitX=0.5;exitY=0;exitDx=0;exitDy=0;" parent="1" source="PIymlbc4sg3d0iJ04IQR-61" target="PIymlbc4sg3d0iJ04IQR-1" edge="1">
          <mxGeometry width="50" height="50" relative="1" as="geometry">
            <mxPoint x="-570" y="370" as="sourcePoint" />
            <mxPoint x="-520" y="320" as="targetPoint" />
          </mxGeometry>
        </mxCell>
        <mxCell id="PIymlbc4sg3d0iJ04IQR-63" value="(1,n)" style="text;html=1;align=center;verticalAlign=middle;whiteSpace=wrap;rounded=0;" parent="1" vertex="1">
          <mxGeometry x="-600" y="240" width="40" height="20" as="geometry" />
        </mxCell>
        <mxCell id="PIymlbc4sg3d0iJ04IQR-64" value="(1,1)" style="text;html=1;align=center;verticalAlign=middle;whiteSpace=wrap;rounded=0;" parent="1" vertex="1">
          <mxGeometry x="-600" y="580" width="40" height="20" as="geometry" />
        </mxCell>
        <mxCell id="PIymlbc4sg3d0iJ04IQR-65" value="" style="endArrow=none;html=1;rounded=0;exitX=0;exitY=0;exitDx=0;exitDy=0;" parent="1" source="PIymlbc4sg3d0iJ04IQR-66" edge="1">
          <mxGeometry width="50" height="50" relative="1" as="geometry">
            <mxPoint x="-460" y="400" as="sourcePoint" />
            <mxPoint x="-560" y="240" as="targetPoint" />
          </mxGeometry>
        </mxCell>
        <mxCell id="PIymlbc4sg3d0iJ04IQR-66" value="THAMGIA" style="rhombus;whiteSpace=wrap;html=1;" parent="1" vertex="1">
          <mxGeometry x="-470" y="400" width="130" height="40" as="geometry" />
        </mxCell>
        <mxCell id="PIymlbc4sg3d0iJ04IQR-67" value="" style="endArrow=none;html=1;rounded=0;entryX=0;entryY=1;entryDx=0;entryDy=0;exitX=0.75;exitY=0;exitDx=0;exitDy=0;" parent="1" source="PIymlbc4sg3d0iJ04IQR-29" target="PIymlbc4sg3d0iJ04IQR-66" edge="1">
          <mxGeometry width="50" height="50" relative="1" as="geometry">
            <mxPoint x="-327" y="690" as="sourcePoint" />
            <mxPoint x="-450" y="520" as="targetPoint" />
          </mxGeometry>
        </mxCell>
        <mxCell id="PIymlbc4sg3d0iJ04IQR-68" value="NGAYTHAMGIA" style="ellipse;whiteSpace=wrap;html=1;" parent="1" vertex="1">
          <mxGeometry x="-360" y="320" width="120" height="60" as="geometry" />
        </mxCell>
        <mxCell id="PIymlbc4sg3d0iJ04IQR-69" value="" style="endArrow=none;html=1;rounded=0;entryX=0;entryY=1;entryDx=0;entryDy=0;exitX=1;exitY=0;exitDx=0;exitDy=0;" parent="1" source="PIymlbc4sg3d0iJ04IQR-66" target="PIymlbc4sg3d0iJ04IQR-68" edge="1">
          <mxGeometry width="50" height="50" relative="1" as="geometry">
            <mxPoint x="-360" y="409" as="sourcePoint" />
            <mxPoint x="-422" y="380" as="targetPoint" />
          </mxGeometry>
        </mxCell>
        <mxCell id="PIymlbc4sg3d0iJ04IQR-70" value="(1,n)" style="text;html=1;align=center;verticalAlign=middle;whiteSpace=wrap;rounded=0;" parent="1" vertex="1">
          <mxGeometry x="-510" y="580" width="40" height="20" as="geometry" />
        </mxCell>
        <mxCell id="PIymlbc4sg3d0iJ04IQR-72" value="(1,n)" style="text;html=1;align=center;verticalAlign=middle;whiteSpace=wrap;rounded=0;" parent="1" vertex="1">
          <mxGeometry x="-545" y="240" width="40" height="20" as="geometry" />
        </mxCell>
      </root>
    </mxGraphModel>
  </diagram>
</mxfile>
